<mxfile host="app.diagrams.net" modified="2020-07-25T14:51:39.751Z" agent="5.0 (Windows NT 10.0; Win64; x64) AppleWebKit/537.36 (KHTML, like Gecko) Chrome/84.0.4147.89 Safari/537.36" etag="l7n9AKdBrMVfEEC-saP2" version="13.5.3" type="github">
  <diagram id="Ot8doZToqWK-ZIWS9BAW" name="Página-1">
    <mxGraphModel dx="2170" dy="1220" grid="1" gridSize="10" guides="1" tooltips="1" connect="1" arrows="1" fold="1" page="1" pageScale="1" pageWidth="827" pageHeight="1169" math="0" shadow="0">
      <root>
        <mxCell id="0" />
        <mxCell id="1" parent="0" />
        <mxCell id="EQg3IGWfbFtw62BqlUpt-25" value="" style="edgeStyle=entityRelationEdgeStyle;fontSize=12;html=1;endArrow=ERzeroToMany;endFill=1;exitX=1;exitY=0.25;exitDx=0;exitDy=0;entryX=-0.05;entryY=0.35;entryDx=0;entryDy=0;entryPerimeter=0;" edge="1" parent="1" source="EQg3IGWfbFtw62BqlUpt-16" target="EQg3IGWfbFtw62BqlUpt-22">
          <mxGeometry width="100" height="100" relative="1" as="geometry">
            <mxPoint x="270" y="400" as="sourcePoint" />
            <mxPoint x="370" y="300" as="targetPoint" />
          </mxGeometry>
        </mxCell>
        <mxCell id="EQg3IGWfbFtw62BqlUpt-27" value="" style="edgeStyle=entityRelationEdgeStyle;fontSize=12;html=1;endArrow=ERzeroToMany;endFill=1;exitX=0.969;exitY=0.42;exitDx=0;exitDy=0;exitPerimeter=0;" edge="1" parent="1" source="EQg3IGWfbFtw62BqlUpt-16" target="EQg3IGWfbFtw62BqlUpt-24">
          <mxGeometry width="100" height="100" relative="1" as="geometry">
            <mxPoint x="384" y="284" as="sourcePoint" />
            <mxPoint x="510" y="390" as="targetPoint" />
          </mxGeometry>
        </mxCell>
        <mxCell id="EQg3IGWfbFtw62BqlUpt-15" value="cliente" style="swimlane;childLayout=stackLayout;horizontal=1;startSize=30;horizontalStack=0;rounded=1;fontSize=14;fontStyle=0;strokeWidth=2;resizeParent=0;resizeLast=1;shadow=0;dashed=0;align=center;" vertex="1" parent="1">
          <mxGeometry x="220" y="210" width="160" height="130" as="geometry" />
        </mxCell>
        <mxCell id="EQg3IGWfbFtw62BqlUpt-16" value="+id_cliente&#xa;+nombre&#xa;+telefono&#xa;+nit -PK" style="align=left;strokeColor=none;fillColor=none;spacingLeft=4;fontSize=12;verticalAlign=top;resizable=0;rotatable=0;part=1;" vertex="1" parent="EQg3IGWfbFtw62BqlUpt-15">
          <mxGeometry y="30" width="160" height="100" as="geometry" />
        </mxCell>
        <mxCell id="EQg3IGWfbFtw62BqlUpt-21" value="Correo" style="swimlane;childLayout=stackLayout;horizontal=1;startSize=30;horizontalStack=0;rounded=1;fontSize=14;fontStyle=0;strokeWidth=2;resizeParent=0;resizeLast=1;shadow=0;dashed=0;align=center;" vertex="1" parent="1">
          <mxGeometry x="670" y="100" width="160" height="130" as="geometry" />
        </mxCell>
        <mxCell id="EQg3IGWfbFtw62BqlUpt-22" value="+id_correo -PK&#xa;+id_cliente&#xa;+correo&#xa;" style="align=left;strokeColor=none;fillColor=none;spacingLeft=4;fontSize=12;verticalAlign=top;resizable=0;rotatable=0;part=1;" vertex="1" parent="EQg3IGWfbFtw62BqlUpt-21">
          <mxGeometry y="30" width="160" height="100" as="geometry" />
        </mxCell>
        <mxCell id="EQg3IGWfbFtw62BqlUpt-23" value="Direccion" style="swimlane;childLayout=stackLayout;horizontal=1;startSize=30;horizontalStack=0;rounded=1;fontSize=14;fontStyle=0;strokeWidth=2;resizeParent=0;resizeLast=1;shadow=0;dashed=0;align=center;" vertex="1" parent="1">
          <mxGeometry x="670" y="250" width="160" height="160" as="geometry" />
        </mxCell>
        <mxCell id="EQg3IGWfbFtw62BqlUpt-24" value="+id_Dirección -PK&#xa;+Calle&#xa;+Avenida&#xa;+zona&#xa;+tipo&#xa;+Departamento&#xa;+Municipio" style="align=left;strokeColor=none;fillColor=none;spacingLeft=4;fontSize=12;verticalAlign=top;resizable=0;rotatable=0;part=1;" vertex="1" parent="EQg3IGWfbFtw62BqlUpt-23">
          <mxGeometry y="30" width="160" height="130" as="geometry" />
        </mxCell>
        <mxCell id="EQg3IGWfbFtw62BqlUpt-19" value="Factura" style="swimlane;childLayout=stackLayout;horizontal=1;startSize=20;horizontalStack=0;rounded=1;fontSize=14;fontStyle=0;strokeWidth=2;resizeParent=0;resizeLast=1;shadow=0;dashed=0;align=center;" vertex="1" parent="1">
          <mxGeometry x="670" y="440" width="160" height="120" as="geometry" />
        </mxCell>
        <mxCell id="EQg3IGWfbFtw62BqlUpt-20" value="+id_factura -PK&#xa;+total&#xa;+nit_cliente -FK&#xa;+fecha&#xa;" style="align=left;strokeColor=none;fillColor=none;spacingLeft=4;fontSize=12;verticalAlign=top;resizable=0;rotatable=0;part=1;" vertex="1" parent="EQg3IGWfbFtw62BqlUpt-19">
          <mxGeometry y="20" width="160" height="100" as="geometry" />
        </mxCell>
        <mxCell id="EQg3IGWfbFtw62BqlUpt-41" value="" style="edgeStyle=entityRelationEdgeStyle;fontSize=12;html=1;endArrow=ERzeroToMany;endFill=1;exitX=1;exitY=0.75;exitDx=0;exitDy=0;" edge="1" parent="1" source="EQg3IGWfbFtw62BqlUpt-16">
          <mxGeometry width="100" height="100" relative="1" as="geometry">
            <mxPoint x="570" y="610" as="sourcePoint" />
            <mxPoint x="670" y="510" as="targetPoint" />
          </mxGeometry>
        </mxCell>
        <mxCell id="EQg3IGWfbFtw62BqlUpt-50" style="edgeStyle=orthogonalEdgeStyle;rounded=0;orthogonalLoop=1;jettySize=auto;html=1;exitX=0.5;exitY=1;exitDx=0;exitDy=0;entryX=0.5;entryY=0;entryDx=0;entryDy=0;endArrow=ERmany;endFill=0;" edge="1" parent="1" source="EQg3IGWfbFtw62BqlUpt-45" target="EQg3IGWfbFtw62BqlUpt-48">
          <mxGeometry relative="1" as="geometry" />
        </mxCell>
        <mxCell id="EQg3IGWfbFtw62BqlUpt-46" value="Detalle_Factura" style="swimlane;childLayout=stackLayout;horizontal=1;startSize=30;horizontalStack=0;rounded=1;fontSize=14;fontStyle=0;strokeWidth=2;resizeParent=0;resizeLast=1;shadow=0;dashed=0;align=center;" vertex="1" parent="1">
          <mxGeometry x="1000" y="290" width="160" height="120" as="geometry" />
        </mxCell>
        <mxCell id="EQg3IGWfbFtw62BqlUpt-47" value="+id_detalle -PK&#xa;+id_factura -FK&#xa;+id_producto -FK&#xa;+cantidad&#xa;+Precio" style="align=left;strokeColor=none;fillColor=none;spacingLeft=4;fontSize=12;verticalAlign=top;resizable=0;rotatable=0;part=1;labelBackgroundColor=#ffffff;" vertex="1" parent="EQg3IGWfbFtw62BqlUpt-46">
          <mxGeometry y="30" width="160" height="90" as="geometry" />
        </mxCell>
        <mxCell id="EQg3IGWfbFtw62BqlUpt-44" value="producto" style="swimlane;childLayout=stackLayout;horizontal=1;startSize=30;horizontalStack=0;rounded=1;fontSize=14;fontStyle=0;strokeWidth=2;resizeParent=0;resizeLast=1;shadow=0;dashed=0;align=center;" vertex="1" parent="1">
          <mxGeometry x="1000" y="440" width="160" height="120" as="geometry" />
        </mxCell>
        <mxCell id="EQg3IGWfbFtw62BqlUpt-45" value="+id_producto -PK&#xa;+nombre_producto&#xa;+precio_producto &#xa;" style="align=left;strokeColor=none;fillColor=none;spacingLeft=4;fontSize=12;verticalAlign=top;resizable=0;rotatable=0;part=1;whiteSpace=wrap;" vertex="1" parent="EQg3IGWfbFtw62BqlUpt-44">
          <mxGeometry y="30" width="160" height="90" as="geometry" />
        </mxCell>
        <mxCell id="EQg3IGWfbFtw62BqlUpt-48" value="bodega" style="swimlane;childLayout=stackLayout;horizontal=1;startSize=30;horizontalStack=0;rounded=1;fontSize=14;fontStyle=0;strokeWidth=2;resizeParent=0;resizeLast=1;shadow=0;dashed=0;align=center;" vertex="1" parent="1">
          <mxGeometry x="1000" y="620" width="160" height="120" as="geometry" />
        </mxCell>
        <mxCell id="EQg3IGWfbFtw62BqlUpt-49" value="+id_bodega -PK&#xa;+id_producto -FK&#xa;+cantidad&#xa;" style="align=left;strokeColor=none;fillColor=none;spacingLeft=4;fontSize=12;verticalAlign=top;resizable=0;rotatable=0;part=1;labelBackgroundColor=#ffffff;" vertex="1" parent="EQg3IGWfbFtw62BqlUpt-48">
          <mxGeometry y="30" width="160" height="90" as="geometry" />
        </mxCell>
        <mxCell id="EQg3IGWfbFtw62BqlUpt-52" style="edgeStyle=orthogonalEdgeStyle;rounded=0;orthogonalLoop=1;jettySize=auto;html=1;exitX=0.5;exitY=1;exitDx=0;exitDy=0;entryX=0.5;entryY=0;entryDx=0;entryDy=0;endArrow=ERmany;endFill=0;" edge="1" parent="1" source="EQg3IGWfbFtw62BqlUpt-47" target="EQg3IGWfbFtw62BqlUpt-44">
          <mxGeometry relative="1" as="geometry" />
        </mxCell>
        <mxCell id="EQg3IGWfbFtw62BqlUpt-53" style="edgeStyle=orthogonalEdgeStyle;rounded=0;orthogonalLoop=1;jettySize=auto;html=1;exitX=1;exitY=0.5;exitDx=0;exitDy=0;entryX=-0.02;entryY=0.325;entryDx=0;entryDy=0;entryPerimeter=0;endArrow=ERmany;endFill=0;" edge="1" parent="1" source="EQg3IGWfbFtw62BqlUpt-20" target="EQg3IGWfbFtw62BqlUpt-47">
          <mxGeometry relative="1" as="geometry">
            <Array as="points">
              <mxPoint x="880" y="510" />
              <mxPoint x="880" y="349" />
            </Array>
          </mxGeometry>
        </mxCell>
      </root>
    </mxGraphModel>
  </diagram>
</mxfile>
